# xmcd CD database file
#
# Track frame offsets:
#	150
#	21201
#	40444
#	61494
#	83464
#	104583
#	128637
#	151120
#	172561
#	192830
#	214744
#	236978
#
# Disc length: 3418 seconds
#
# Revision: 0
# Processed by: cddbd v1.5.1PL0 Copyright (c) Steve Scherf et al.
# Submitted via: CDex 1.51
#
DISCID=950d580c
DTITLE=Nicole Mitchell - The Many Moods Of Me
DYEAR=2005
DGENRE=Jazz
TTITLE0=Many Moods
TTITLE1=Life Goes On
TTITLE2=Everything I Miss At Home
TTITLE3=Dance
TTITLE4=Cest La Vie
TTITLE5=Prodigy Child
TTITLE6=Completely Over You
TTITLE7=U Can't Make Somebody Love You
TTITLE8=Over You (Remix)
TTITLE9=Over You (Dub Mix)
TTITLE10=Everything I Miss At Home (Instrumental)
TTITLE11=Life Goes On (Instrumental)
EXTD=YEAR: 2005
EXTT0=
EXTT1=
EXTT2=
EXTT3=
EXTT4=
EXTT5=
EXTT6=
EXTT7=
EXTT8=
EXTT9=
EXTT10=
EXTT11=
PLAYORDER=
